<svg xmlns="http://www.w3.org/2000/svg" viewBox="0 0 1000 1000" fill="#ff385c">
  <path d="M499.3 736.7c51.2 0 102.7 0 153.8 0 88.9 0 177.4 0 266 0 8.1-3.9 16.4-8.1 23.3-13.7 17.4-14 25.1-36.2 23-58.9-1.5-15.8 3.8-31.5 16.1-41 22.3-17.6 25.2-37.7 25.2-63.3 0-39.3-21.9-58.9-44.5-74.8-26.8-18.9-59.7-26.7-92.9-26.7-42.1 0-83.2 13.2-107.5 40.6-20.1 22.5-31.2 54.3-28.8 86 1.5 19.6 7.7 36.2 9.2 40.6-13.2 6.9-26 13.2-38.7 19.6-2.3-4.6-11.2-22.3-13.7-33.1-2.7-12.5 5.4-28.6 15.2-52.8 3.1-7.7 6.1-15.2 8.9-22.9-11.6-24.9-26.4-48.7-46-61.5-32.1-21-59.7-17.4-74.8-7.7-16.1 9.7-29.5 26-36.9 52.1-14 53.7-1.5 95 3.9 117.6-13.2 15.4-26.1 31.4-36.2 49.6-1.9 3.4-3.8 6.6-5.5 9.8-3.9 8.5-19.6 51.7-13.9 113 7.4 83.3 107.1 139.5 199.5 139.5 38.5 0 68.5-3.7 113.4-12 20.6-15.8 22.6-25.9 42.5-82.7 17.5-50.1 31.3-79.8 53.2-98.2 20.1-16.9 43.6-21.5 71-21.5 58.5 0 111.5 38.7 117.9 97.8 6.5 58.8-38.2 100.5-97 100.5-28.4 0-65.1-8.1-80.9-16.9-22.4 14.7-35.7 25.1-58.1 36.1 35.5 21.5 82.2 35.9 132.9 35.9 85 0 161.3-44.5 185.1-113.3 14-40.2 15.9-82.6 6.8-123.1 29.9-17.9 57.3-47.4 67-80.1 15-51-6.8-105.8-48.4-131.4v-.3c0-46.9.4-95.4.4-140.4 0-11.6-.9-19.5-6.8-29.1-12.1-18.8-38.7-32.4-68.5-32.4-81.5 0-128.1 55.7-216.6 56.7-21.7 0-30.6-8.2-31.2-8.9v.8c-1.7-14.1-14.8-25-31.7-25-17 0-30.1 10.9-31.7 25v.8c-.6.7-9.5 8.9-31.2 8.9-88.4-1-135-56.7-216.6-56.7-29.8 0-56.4 13.6-68.5 32.4-5.9 9.6-6.8 17.4-6.8 29.1 0 45 .4 93.5.4 140.5v.3c-41.6 25.6-63.4 80.4-48.4 131.4 9.7 32.6 37 62.1 67 80.1-9.1 40.5-7.2 82.9 6.8 123.1 23.8 68.8 100.1 113.3 185.1 113.3 50.7-.1 97.5-14.5 132.9-36 28.8-17.5 31.8-24.2 58.1-36.1-15.8 8.8-36.9 16.9-80.9 16.9-58.8 0-103.5-41.7-97-100.5 6.4-59.1 59.4-97.8 117.9-97.8 27.4 0 51 4.7 71 21.5 21.9 18.4 35.7 48.1 53.2 98.2 19.9 56.9 21.9 67 42.5 82.8-22.9 8.8-106.7 18.2-145.5 1.2-24.4-10.7-36.8-25.9-45-40.1-4.9-8.4-9.7-16.9-14.3-25.4-2.7-4.9-5.5-9.8-8.2-14.6-8.8-15.2-17.7-30.5-26.8-45-2.9-4.5-5.8-9-8.7-13.5-3.3-5.2-6.7-10.3-10.4-16.5-2.4-4.1-4.8-8.2-7.2-12.3-5-8.7-10.2-18.2-14.3-31.9-1.9-6.2-2.7-11.1-3.5-15.4-.8-4.2-.9-7.6-.9-10.4 0-4.7-.1-8.5 1.7-13.1 3.3-9 14.9-20.3 31.4-20.3 15.1 0 26.3 8.3 31.1 21.9 2.6 7.5 2.8 16.1 4 24.4.4 4.2.9 7.9 1.6 11.7 3.9 19.7 9.7 33.4 16.1 46.9 3.5 7.4 7.6 15.3 11.9 22.8 4.6 8.2 9.6 16.5 14.7 24.7 0-.3.3-.6.5-1.7 9.8-29.3 42.8-45.8 93.4-45.8 52.7 0 87.2 24.2 87.2 60.5 0 24.7-12.5 49-58.5 47.4-28.8-1.1-54.1-8.5-58.9-34.9h-.6c-9.3 29.1-26.5 53-33.8 64.1-4.1 6.1-8.4 12.1-12.8 18-2.1 2.7-4.1 5.5-6.2 8.2-10.9 14.1-22.2 28.5-26.7 45-4 14.4-3.1 26.5-2.1 38.9.5 6.2 1.1 12.2 1.3 18.5v1.7c0 47.9.4 87.9.4 131.9 0 11.6-.9 19.5-6.8 29.1-12.1 18.8-38.7 32.4-68.5 32.4-29.8 0-56.4-13.6-68.5-32.4-5.9-9.6-6.8-17.4-6.8-29.1 0-44 .4-84 .4-131.9v-1.7c.2-6.3.7-12.4 1.3-18.5 1-12.4 1.9-24.5-2.1-38.9-4.6-16.5-15.9-30.9-26.7-45-2.1-2.7-4.1-5.5-6.2-8.2-4.4-5.9-8.7-11.9-12.8-18-7.3-11-24.5-35-33.8-64.1h-.6c-4.7 26.4-30.1 33.8-58.9 34.9-46 1.6-58.5-22.7-58.5-47.4 0-36.3 34.5-60.5 87.2-60.5 50.7 0 83.7 16.5 93.4 45.8.2 1.1.4 1.4.5 1.7 5.1-8.2 10.1-16.5 14.7-24.7 4.3-7.5 8.4-15.4 11.9-22.8 6.4-13.5 12.2-27.2 16.1-46.9.7-3.8 1.1-7.5 1.6-11.7 1.2-8.3 1.4-16.9 4-24.4 4.8-13.6 16-21.9 31.1-21.9 16.5 0 28.2 11.3 31.4 20.3 1.8 4.6 1.7 8.4 1.7 13.1 0 2.8-.1 6.2-.9 10.4-.8 4.3-1.6 9.2-3.5 15.4-4.1 13.8-9.3 23.3-14.3 31.9-2.3 4.1-4.8 8.2-7.2 12.3-3.7 6.1-7.1 11.3-10.4 16.5-2.9 4.5-5.8 9-8.7 13.5-9.1 14.6-18 29.8-26.8 45-2.7 4.8-5.5 9.7-8.2 14.6-4.6 8.5-9.4 16.9-14.3 25.4-8.2 14.2-20.6 29.4-45 40.1-38.8 17-122.6 7.6-145.5-1.2 20.7-15.8 22.6-26 42.5-82.8 17.5-50.1 31.3-79.8 53.2-98.2 20.1-16.9 43.6-21.5 71-21.5 58.5 0 111.5 38.7 117.9 97.8 6.5 58.8-38.2 100.5-97 100.5-44 0-65.1-8.1-80.9-16.9 26.3 21.9 29.3 29.5 58.1 36.1 35.5 21.5 82.2 35.9 132.9 35.9z"/>
</svg>
